<svg id="Capa_1" enable-background="new 0 0 512 512" height="512" viewBox="0 0 512 512" width="512" xmlns="http://www.w3.org/2000/svg"><g><g><g><path d="m102.754 194.247c5.858 5.857 5.858 15.355 0 21.213-5.857 5.857-15.355 5.857-21.213 0-25.498-25.499-39.541-59.4-39.541-95.46s14.043-69.961 39.541-95.459c5.857-5.857 15.355-5.857 21.213 0s5.858 15.355 0 21.213c-19.832 19.832-30.754 46.199-30.754 74.246s10.922 54.414 30.754 74.247z"/><path d="m145.18 151.821c5.858 5.858 5.858 15.355 0 21.213s-15.356 5.859-21.213 0c-29.242-29.242-29.242-76.824 0-106.066 5.856-5.859 15.354-5.857 21.213 0s5.858 15.354 0 21.213c-17.545 17.545-17.545 46.093 0 63.64z"/></g><g><path d="m497 30h-22.482v180h22.482c8.284 0 15-6.716 15-15v-150c0-8.284-6.716-15-15-15z"/><path d="m380.944 0h-83.944c-19.33 0-35 15.67-35 35 0 19.33 15.67 35 35 35h79c8.284 0 15 6.716 15 15s-6.716 15-15 15h-34v75c0 25.122-9.806 47.994-25.787 65h64.731c24.81 0 48.013-11.083 63.574-30.003l-.001-179.996c-15.56-18.918-38.763-30.001-63.573-30.001z"/><path d="m232 35c0-12.796 3.732-24.73 10.143-34.799-33.579 2.495-60.143 30.594-60.143 64.799v110c0 35.841 29.159 65 65 65s65-29.159 65-65v-75h-15c-35.841 0-65-29.159-65-65z"/></g></g><g><g><path d="m409.246 466.247c-5.858 5.857-5.858 15.355 0 21.213 5.857 5.857 15.355 5.857 21.213 0 25.498-25.499 39.541-59.4 39.541-95.46s-14.043-69.961-39.541-95.459c-5.857-5.857-15.355-5.857-21.213 0s-5.858 15.355 0 21.213c19.832 19.832 30.754 46.199 30.754 74.246s-10.922 54.414-30.754 74.247z"/><path d="m366.82 423.821c-5.858 5.858-5.858 15.355 0 21.213s15.356 5.859 21.213 0c29.242-29.242 29.242-76.824 0-106.066-5.856-5.859-15.354-5.857-21.213 0s-5.858 15.354 0 21.213c17.545 17.545 17.545 46.093 0 63.64z"/></g><g><path d="m15 302h22.482v180h-22.482c-8.284 0-15-6.716-15-15v-150c0-8.284 6.716-15 15-15z"/><path d="m131.056 272h83.944c19.33 0 35 15.67 35 35 0 19.33-15.67 35-35 35h-79c-8.284 0-15 6.716-15 15s6.716 15 15 15h34v75c0 25.122 9.806 47.994 25.787 65h-64.731c-24.81 0-48.013-11.083-63.574-30.003l.001-179.996c15.56-18.918 38.763-30.001 63.573-30.001z"/><path d="m280 307c0-12.796-3.732-24.73-10.143-34.799 33.579 2.495 60.143 30.594 60.143 64.799v110c0 35.841-29.159 65-65 65s-65-29.159-65-65v-75h15c35.841 0 65-29.159 65-65z"/></g></g></g></svg>